<svg width="42" height="42" viewBox="0 0 42 42" fill="none" xmlns="http://www.w3.org/2000/svg">
<circle cx="21" cy="21" r="21" fill="#E61E19"/>
<path d="M35.5 21C35.5 29.0081 29.0081 35.5 21 35.5C12.9919 35.5 6.5 29.0081 6.5 21C6.5 12.9919 12.9919 6.5 21 6.5C29.0081 6.5 35.5 12.9919 35.5 21Z" stroke="white"/>
<g clip-path="url(#clip0)">
<path d="M11.5859 31H22.2109C22.5346 31 22.7969 30.7377 22.7969 30.4141V29.7891C22.7969 29.1418 22.2723 28.6172 21.625 28.6172V27.9167C21.625 26.9891 20.8703 26.2344 19.9427 26.2344H13.8542C12.9266 26.2344 12.1719 26.9891 12.1719 27.9167V28.6172C11.5246 28.6172 11 29.1418 11 29.7891V30.4141C11 30.7375 11.2625 31 11.5859 31Z" fill="white"/>
<path d="M18.3334 23.9042C18.7228 24.421 19.4577 24.5243 19.9745 24.1348C20.4915 23.7454 20.5946 23.0105 20.2052 22.4935L16.6789 17.8141C16.2894 17.2972 15.5546 17.194 15.0378 17.5834C14.5209 17.973 14.4176 18.7077 14.8071 19.2246L18.3334 23.9042Z" fill="white"/>
<path d="M26.7564 17.5567C27.1459 18.0735 27.8806 18.1768 28.3976 17.7873C28.9144 17.3979 29.0177 16.6632 28.6282 16.1462L25.1019 11.4668C24.7125 10.9498 23.9776 10.8465 23.4608 11.2361C22.944 11.6256 22.8407 12.3603 23.2302 12.8773L26.7564 17.5567Z" fill="white"/>
<path d="M24.1859 20.9612C25.052 20.3086 25.7022 19.4982 26.1088 18.6449L22.0057 13.2C21.0734 13.3557 20.1153 13.7572 19.2491 14.41C18.383 15.0626 17.7328 15.873 17.3262 16.7261L21.4293 22.1714C22.3616 22.0156 23.3197 21.614 24.1859 20.9612Z" fill="white"/>
<path d="M25.7681 21.1135C25.4953 21.3915 25.208 21.6581 24.8912 21.8969C24.5743 22.1356 24.2387 22.3383 23.8965 22.524L24.6605 23.538L26.5323 22.1276L25.7681 21.1135Z" fill="white"/>
<path d="M27.2375 23.0635L25.3657 24.4738L28.892 29.1534C29.2816 29.6704 30.0163 29.7735 30.5331 29.3841C31.0501 28.9946 31.1532 28.2599 30.7638 27.7429L27.2375 23.0635Z" fill="white"/>
</g>
<defs>
<clipPath id="clip0">
<rect width="20" height="20" fill="white" transform="translate(11 11)"/>
</clipPath>
</defs>
</svg>
