<svg width="42" height="42" viewBox="0 0 42 42" fill="none" xmlns="http://www.w3.org/2000/svg">
<circle cx="21" cy="21" r="21" fill="#3D9BE9"/>
<path d="M35.5 21C35.5 29.0081 29.0081 35.5 21 35.5C12.9919 35.5 6.5 29.0081 6.5 21C6.5 12.9919 12.9919 6.5 21 6.5C29.0081 6.5 35.5 12.9919 35.5 21Z" stroke="white"/>
<path d="M21 6C12.7158 6 6 12.7158 6 21C6 29.2842 12.7158 36 21 36C29.2842 36 36 29.2842 36 21C35.9907 12.7197 29.2803 6.00928 21 6ZM21.5354 10.3245L26.75 8.23999C27.3418 8.50781 27.9143 8.81641 28.4634 9.16357L28.4771 9.17212C29.0166 9.51392 29.5322 9.89209 30.0205 10.304L30.0625 10.3406C30.2815 10.5271 30.4944 10.7202 30.7014 10.9194C30.7275 10.9451 30.7549 10.9695 30.781 10.9956C30.998 11.2075 31.2083 11.426 31.4116 11.6509C31.4285 11.6699 31.4446 11.6899 31.4614 11.709C31.6399 11.9089 31.8115 12.116 31.978 12.3264C32.0181 12.3765 32.0581 12.4265 32.0969 12.4766C32.2776 12.7104 32.4524 12.9485 32.6174 13.1941L31.5779 17.613L26.4634 19.3181L21.5366 15.376L21.5354 10.3245ZM9.90259 12.4795C9.94141 12.4294 9.98096 12.3794 10.021 12.3296C10.1855 12.1208 10.3557 11.9172 10.5315 11.7185C10.5505 11.6975 10.5681 11.676 10.5869 11.655C10.7891 11.4297 10.9983 11.2114 11.2151 11C11.24 10.9756 11.2649 10.95 11.291 10.9275C11.4963 10.7295 11.7075 10.5376 11.9246 10.3521L11.9746 10.3101C12.4585 9.90112 12.9692 9.52539 13.5034 9.18506L13.5229 9.17261C14.0688 8.82617 14.6377 8.51807 15.2261 8.25L20.4646 10.3245V15.3745L15.5376 19.3159L10.4231 17.614L9.38354 13.1951C9.55005 12.95 9.7229 12.7124 9.90259 12.4795ZM9.30005 28.6726C9.15308 28.4485 9.01245 28.2202 8.87842 27.9875L8.84595 27.9314C8.71265 27.7 8.58643 27.4646 8.46753 27.2256L8.46338 27.218C8.21289 26.7151 7.99292 26.1975 7.80493 25.668V25.6631C7.71606 25.4131 7.63501 25.157 7.56006 24.8994L7.53296 24.8044C7.46436 24.5625 7.4021 24.3179 7.34644 24.0706C7.34155 24.0464 7.33545 24.0234 7.33057 23.9995C7.20776 23.4409 7.11963 22.8755 7.06641 22.3059L10.1189 18.6431L15.198 20.3359L16.6721 26.2319L14.25 29.4546L9.30005 28.6726ZM24.3296 34.5964C24.0796 34.6584 23.823 34.7119 23.5664 34.76C23.5305 34.7671 23.4939 34.7729 23.458 34.7795C23.2395 34.8186 23.0186 34.8521 22.7971 34.8794C22.738 34.887 22.6794 34.895 22.6206 34.9021C22.415 34.926 22.2075 34.9441 21.9995 34.959C21.9341 34.9634 21.8694 34.97 21.804 34.9741C21.5381 34.9905 21.27 35 21 35C20.7527 35 20.5068 34.9934 20.2625 34.9805C20.2329 34.9805 20.2046 34.9756 20.175 34.9734C19.9575 34.9609 19.741 34.9446 19.5249 34.9236L19.5 34.9189C19.0266 34.8677 18.5559 34.7925 18.0901 34.6941L15.1326 30.0635L17.5166 26.8845H24.4834L26.9065 30.0845L24.3296 34.5964ZM34.6731 24C34.668 24.0239 34.6621 24.0471 34.657 24.071C34.6011 24.3181 34.5388 24.5627 34.4705 24.8049L34.4436 24.8999C34.3684 25.1575 34.2876 25.4126 34.1985 25.6636V25.6685C34.0105 26.198 33.7908 26.7156 33.54 27.2185L33.5359 27.2261C33.4163 27.4653 33.2903 27.7007 33.1575 27.9319L33.125 27.988C32.9917 28.2214 32.8513 28.4492 32.7041 28.6721L27.771 29.45L25.332 26.23L26.8054 20.3354L31.8845 18.6426L34.937 22.3054C34.884 22.8752 34.7959 23.4412 34.6731 24Z" fill="white"/>
</svg>
