<svg width="40" height="40" viewBox="0 0 40 40" fill="none" xmlns="http://www.w3.org/2000/svg">
<g clip-path="url(#clip0)">
<path d="M35.2553 14.9219C35.2553 19.7882 31.3107 23.7332 26.444 23.7332C21.5777 23.7332 17.6328 19.7882 17.6328 14.9219C17.6328 10.0556 21.5777 6.11063 26.444 6.11063C31.3107 6.11063 35.2553 10.0556 35.2553 14.9219Z" fill="#FDD020"/>
<path d="M39.322 15.5997H37.9665C37.5921 15.5997 37.2887 15.2962 37.2887 14.9219C37.2887 14.5476 37.5921 14.2441 37.9665 14.2441H39.322C39.6967 14.2441 39.9998 14.5476 39.9998 14.9219C39.9998 15.2962 39.6967 15.5997 39.322 15.5997Z" fill="#FDD020"/>
<path d="M25.0885 4.07725C24.7142 4.07725 24.4107 3.77376 24.4107 3.39946V2.04388C24.4107 1.66957 24.7142 1.36609 25.0885 1.36609C25.4631 1.36609 25.7663 1.66957 25.7663 2.04388V3.39946C25.7663 3.77376 25.4631 4.07725 25.0885 4.07725Z" fill="#FDD020"/>
<path d="M34.5775 7.46619C34.3035 7.46619 34.0566 7.30105 33.9517 7.04754C33.8468 6.79436 33.9047 6.50312 34.0987 6.30918L35.4542 4.9536C35.6243 4.77721 35.8762 4.70671 36.1132 4.7686C36.3501 4.83082 36.5351 5.01582 36.5973 5.25278C36.6592 5.48975 36.5887 5.7416 36.4123 5.91204L35.0568 7.26762C34.9297 7.39471 34.7576 7.46619 34.5775 7.46619Z" fill="#FDD020"/>
<path d="M30.7679 31.8666C33.3238 31.9278 35.7123 30.5994 37.0087 28.3956C38.3047 26.1914 38.3047 23.4584 37.0087 21.2543C35.7123 19.0505 33.3238 17.722 30.7679 17.7833C30.29 17.7836 29.8131 17.8303 29.3445 17.9229C28.7577 15.2098 26.3474 13.281 23.5717 13.3025C22.7231 13.3028 21.8842 13.4842 21.1114 13.8347C19.7502 10.3365 16.1091 8.28528 12.412 8.93394C8.71492 9.58261 5.98953 12.7505 5.90051 16.5031C5.90216 17.3802 6.05771 18.2499 6.35987 19.0733C4.06008 19.0869 1.94464 20.3336 0.818739 22.3392C-0.306828 24.3447 -0.269762 26.8001 0.916701 28.7705C2.10283 30.7407 4.25534 31.9229 6.55447 31.8666" fill="#EEEEEE"/>
<path d="M27.7996 34.5778C27.7996 36.075 26.586 37.2889 25.0885 37.2889C23.5913 37.2889 22.3773 36.075 22.3773 34.5778C22.3773 32.5444 25.0885 27.7999 25.0885 27.7999C25.0885 27.7999 27.7996 32.5444 27.7996 34.5778Z" fill="#60A2D7"/>
<path d="M21.0217 27.7999C21.0217 29.2971 19.8081 30.511 18.3106 30.511C16.8134 30.511 15.5994 29.2971 15.5994 27.7999C15.5994 25.7665 18.3106 21.022 18.3106 21.022C18.3106 21.022 21.0217 25.7665 21.0217 27.7999Z" fill="#60A2D7"/>
<path d="M14.9216 35.9334C14.9216 37.4306 13.708 38.6445 12.2105 38.6445C10.7132 38.6445 9.4993 37.4306 9.4993 35.9334C9.4993 33.9 12.2105 29.1555 12.2105 29.1555C12.2105 29.1555 14.9216 33.9 14.9216 35.9334Z" fill="#60A2D7"/>
</g>
<defs>
<clipPath id="clip0">
</clipPath>
</defs>
</svg>
