<svg width="42" height="42" viewBox="0 0 42 42" fill="none" xmlns="http://www.w3.org/2000/svg">
<circle cx="21" cy="21" r="21" fill="#2E9E4C"/>
<path d="M35.5 21C35.5 29.0081 29.0081 35.5 21 35.5C12.9919 35.5 6.5 29.0081 6.5 21C6.5 12.9919 12.9919 6.5 21 6.5C29.0081 6.5 35.5 12.9919 35.5 21Z" stroke="white"/>
<path d="M36 21.3722C36 18.2846 35.1557 15.4095 33.7018 13C33.7018 13 32.8865 14.2824 33.0397 15.1068C33.1928 15.9312 34.0924 15.9941 34 16.5989C33.9076 17.2036 33.244 16.4258 32.4272 18.0195C31.6104 19.6133 32.019 21.8124 33.1928 21.9769C34.3667 22.1414 36 21.3722 36 21.3722Z" fill="white"/>
<path d="M25.3364 7C27.034 7.39365 28.6086 8.04272 30 8.89577C30 8.89577 28.3088 8.65748 27.6682 9.14681C27.0276 9.63629 26.0933 10.7934 25.3364 9.14681C24.5795 7.50028 25.3364 7 25.3364 7Z" fill="white"/>
<path d="M10 11.179C12.6709 8.0043 16.5896 6 20.9572 6C20.9572 6 19.9685 6.62444 21.8422 7.68305C23.7159 8.74179 22.8571 9.23031 22.4668 9.55606C22.0765 9.88182 21.3994 8.90461 20.9572 8.25322C20.515 7.60164 18.6157 6.59742 17.1583 7.14044C15.7009 7.68347 14.4521 8.08458 14.6601 8.58978C14.8681 9.09486 17.3663 8.11801 18.3032 8.17204C19.24 8.2262 18.9277 8.82326 18.0431 9.52911C17.1583 10.235 17.054 11.1035 17.9909 11.6463C18.9277 12.1894 20.0725 12.2438 20.333 11.9181C20.5934 11.5923 19.8646 9.47501 21.6343 10.3978C23.4039 11.3206 24.8613 11.864 23.4039 13.221C21.9465 14.578 20.2811 16.0986 20.229 16.9669C20.1768 17.8354 20.7496 18.5417 20.4373 18.5957C20.125 18.6497 19.8384 18.2429 19.6303 17.9441C19.4224 17.6455 18.4593 17.5371 17.9909 17.7269C17.5225 17.9168 16.6376 18.6497 17.1321 19.3556C17.6268 20.0616 18.3028 19.7354 18.9796 20.0612C19.6563 20.387 20.2873 21.6267 20.1578 21.907C20.0282 22.187 19.4514 21.8324 18.9796 20.8756C18.5078 19.9187 17.6228 20.5498 17.0001 20.387C16.3774 20.2241 15.909 20.1156 15.2844 18.9754C14.6598 17.8354 13.3667 17.5164 12.8383 16.8582C11.3247 14.9729 11.433 13.5465 11.1207 12.8951C10.8084 12.2435 10 11.179 10 11.179Z" fill="white"/>
<mask id="path-6-inside-1" fill="white">
<path d="M22.6746 21.036C22.6746 21.036 24.1255 21.193 24.8509 21.8748C25.5763 22.5564 25.6732 22.8187 26.7854 23.0808C27.8976 23.3428 28.3814 24.0242 27.6559 25.3351C26.9305 26.6458 25.6245 28.7431 24.996 29.3723C24.3675 30.0016 23.5936 30.5258 23.3034 31.5744C23.0133 32.6228 22.9164 33.2516 23.5452 33.6714C23.5452 33.6714 23.2068 34.5628 22.433 33.4093C21.6591 32.2557 22.2878 30.8927 22.433 30.1062C22.578 29.3198 22.9648 26.9607 22.7231 26.3837C22.4814 25.8069 21.3689 25.4398 21.0787 24.2341C20.7885 23.0283 21.2964 20.6819 22.6746 21.036Z"/>
</mask>
<path d="M22.6746 21.036C22.6746 21.036 24.1255 21.193 24.8509 21.8748C25.5763 22.5564 25.6732 22.8187 26.7854 23.0808C27.8976 23.3428 28.3814 24.0242 27.6559 25.3351C26.9305 26.6458 25.6245 28.7431 24.996 29.3723C24.3675 30.0016 23.5936 30.5258 23.3034 31.5744C23.0133 32.6228 22.9164 33.2516 23.5452 33.6714C23.5452 33.6714 23.2068 34.5628 22.433 33.4093C21.6591 32.2557 22.2878 30.8927 22.433 30.1062C22.578 29.3198 22.9648 26.9607 22.7231 26.3837C22.4814 25.8069 21.3689 25.4398 21.0787 24.2341C20.7885 23.0283 21.2964 20.6819 22.6746 21.036Z" fill="white"/>
<path d="M22.6746 21.036L22.4258 22.0045L22.4955 22.0224L22.567 22.0302L22.6746 21.036ZM24.8509 21.8748L24.166 22.6035L24.1661 22.6035L24.8509 21.8748ZM26.7854 23.0808L26.5561 24.0542L26.5562 24.0542L26.7854 23.0808ZM27.6559 25.3351L28.5308 25.8193L28.5309 25.8193L27.6559 25.3351ZM24.996 29.3723L24.2885 28.6656L24.2884 28.6656L24.996 29.3723ZM23.3034 31.5744L22.3397 31.3077L22.3396 31.3077L23.3034 31.5744ZM23.5452 33.6714L24.4801 34.0262L24.7626 33.2818L24.1004 32.8397L23.5452 33.6714ZM22.433 33.4093L21.6025 33.9664L21.6026 33.9664L22.433 33.4093ZM22.433 30.1062L23.4164 30.2877L23.4164 30.2876L22.433 30.1062ZM22.7231 26.3837L21.8007 26.7701L21.8008 26.7702L22.7231 26.3837ZM21.0787 24.2341L20.1065 24.4681L20.1065 24.4681L21.0787 24.2341ZM22.6746 21.036C22.567 22.0302 22.5668 22.0302 22.5666 22.0301C22.5666 22.0301 22.5664 22.0301 22.5663 22.0301C22.5661 22.0301 22.5659 22.0301 22.5657 22.03C22.5653 22.03 22.565 22.03 22.5648 22.0299C22.5645 22.0299 22.5644 22.0299 22.5647 22.0299C22.5652 22.03 22.5671 22.0302 22.5701 22.0306C22.5763 22.0313 22.5873 22.0327 22.6027 22.0348C22.6337 22.0391 22.6817 22.0461 22.7429 22.0567C22.8664 22.0779 23.0377 22.1123 23.226 22.164C23.6386 22.2773 23.9866 22.4348 24.166 22.6035L25.5357 21.1461C24.9898 20.633 24.2496 20.3711 23.7555 20.2354C23.4904 20.1626 23.2536 20.1152 23.0823 20.0857C22.9962 20.0708 22.9253 20.0603 22.874 20.0533C22.8483 20.0498 22.8275 20.0471 22.812 20.0453C22.8043 20.0443 22.7979 20.0436 22.7929 20.043C22.7904 20.0427 22.7883 20.0425 22.7865 20.0423C22.7856 20.0422 22.7848 20.0421 22.7841 20.042C22.7837 20.042 22.7834 20.0419 22.7831 20.0419C22.7829 20.0419 22.7827 20.0418 22.7826 20.0418C22.7824 20.0418 22.7822 20.0418 22.6746 21.036ZM24.1661 22.6035C24.3425 22.7693 24.4557 22.8855 24.6067 23.0319C24.7444 23.1654 24.9006 23.3107 25.0873 23.4456C25.4891 23.736 25.9322 23.9071 26.5561 24.0542L27.0148 22.1075C26.5264 21.9924 26.3649 21.9013 26.2589 21.8247C26.1916 21.7761 26.1181 21.7116 25.9988 21.5959C25.8929 21.4933 25.7219 21.3211 25.5357 21.146L24.1661 22.6035ZM26.5562 24.0542C27.0035 24.1595 27.0257 24.2854 27.0017 24.2335C26.9726 24.1703 27.0845 24.3024 26.7809 24.8509L28.5309 25.8193C28.9528 25.0569 29.1855 24.1928 28.8178 23.3957C28.4553 22.6098 27.6795 22.264 27.0147 22.1074L26.5562 24.0542ZM26.781 24.8509C26.4295 25.4859 25.9334 26.3183 25.4498 27.0664C24.9465 27.8449 24.5165 28.4374 24.2885 28.6656L25.7034 30.0791C26.104 29.6781 26.6412 28.9073 27.1294 28.1522C27.6373 27.3666 28.1569 26.4951 28.5308 25.8193L26.781 24.8509ZM24.2884 28.6656C23.819 29.1357 22.7217 29.9272 22.3397 31.3077L24.2672 31.8411C24.4655 31.1244 24.916 30.8675 25.7035 30.079L24.2884 28.6656ZM22.3396 31.3077C22.2003 31.8111 22.0531 32.3836 22.0811 32.9117C22.0965 33.2005 22.1639 33.5065 22.3276 33.8005C22.492 34.0957 22.7235 34.3252 22.9899 34.5031L24.1004 32.8397C24.0525 32.8077 24.0603 32.8011 24.075 32.8276C24.0891 32.8529 24.0811 32.8575 24.0783 32.8056C24.0751 32.7454 24.0808 32.6419 24.1131 32.4702C24.1452 32.2999 24.1964 32.0969 24.2672 31.8411L22.3396 31.3077ZM23.5452 33.6714C22.6102 33.3165 22.6104 33.316 22.6106 33.3155C22.6107 33.3153 22.6109 33.3148 22.611 33.3144C22.6113 33.3137 22.6116 33.313 22.6118 33.3123C22.6124 33.311 22.6129 33.3096 22.6134 33.3083C22.6144 33.3057 22.6154 33.3033 22.6163 33.301C22.6182 33.2964 22.6199 33.2922 22.6215 33.2885C22.6246 33.2812 22.6274 33.2751 22.6299 33.27C22.6344 33.2607 22.6401 33.2499 22.6488 33.237C22.6537 33.2296 22.7197 33.1256 22.8812 33.0555C22.973 33.0157 23.0819 32.9936 23.1958 33.0016C23.3067 33.0095 23.3842 33.0433 23.4215 33.0642C23.4777 33.0957 23.4173 33.0816 23.2634 32.8522L21.6026 33.9664C21.8355 34.3137 22.1076 34.6208 22.4449 34.8096C22.8306 35.0254 23.273 35.0657 23.6773 34.8903C24.0202 34.7415 24.2191 34.4868 24.3116 34.3483C24.3641 34.2698 24.4023 34.1984 24.4283 34.1449C24.4416 34.1176 24.4524 34.0935 24.4609 34.0737C24.4651 34.0637 24.4688 34.0547 24.472 34.0468C24.4736 34.0428 24.4751 34.0391 24.4764 34.0357C24.4771 34.034 24.4777 34.0323 24.4784 34.0307C24.4787 34.03 24.479 34.0292 24.4792 34.0284C24.4794 34.028 24.4796 34.0275 24.4797 34.0273C24.4799 34.0267 24.4801 34.0262 23.5452 33.6714ZM23.2634 32.8522C23.0644 32.5556 23.0184 32.2065 23.0794 31.7536C23.1102 31.5249 23.1653 31.293 23.2302 31.0457C23.2878 30.826 23.3712 30.5326 23.4164 30.2877L21.4496 29.9247C21.4222 30.0731 21.3725 30.245 21.2957 30.5381C21.226 30.8036 21.1451 31.132 21.0973 31.4865C21.0011 32.2002 21.0276 33.1094 21.6025 33.9664L23.2634 32.8522ZM23.4164 30.2876C23.4913 29.8816 23.6287 29.0697 23.7169 28.2771C23.7609 27.8823 23.7948 27.473 23.8 27.1126C23.8026 26.9326 23.7983 26.7488 23.7809 26.5763C23.7648 26.4179 23.7319 26.2037 23.6454 25.9972L21.8008 26.7702C21.7747 26.708 21.7825 26.6938 21.7911 26.7778C21.7981 26.8479 21.8022 26.9492 21.8002 27.0838C21.7964 27.3526 21.7699 27.6904 21.7292 28.0558C21.6482 28.7836 21.5197 29.5445 21.4496 29.9248L23.4164 30.2876ZM23.6454 25.9974C23.5005 25.6514 23.2559 25.4016 23.0903 25.2457C23.001 25.1617 22.9069 25.0804 22.8266 25.011C22.7415 24.9376 22.6671 24.8736 22.5933 24.8062C22.3076 24.5453 22.1275 24.318 22.0509 24.0001L20.1065 24.4681C20.3201 25.3558 20.8414 25.9149 21.2449 26.2833C21.3434 26.3731 21.4406 26.4566 21.5196 26.5249C21.6035 26.5973 21.6662 26.652 21.7197 26.7023C21.8397 26.8152 21.8248 26.8276 21.8007 26.7701L23.6454 25.9974ZM22.0509 24.0001C21.9563 23.6067 21.9891 22.9237 22.186 22.4048C22.2826 22.1503 22.382 22.0341 22.4267 21.9984C22.43 21.9958 22.3996 21.9978 22.4258 22.0045L22.9235 20.0674C22.2605 19.8971 21.6498 20.0596 21.1793 20.4351C20.7502 20.7775 20.4824 21.2568 20.316 21.6953C19.987 22.5626 19.911 23.6558 20.1065 24.4681L22.0509 24.0001Z" fill="white" mask="url(#path-6-inside-1)"/>
</svg>
