<svg width="40" height="40" viewBox="0 0 40 40" fill="none" xmlns="http://www.w3.org/2000/svg">
<g clip-path="url(#clip0)">
<path d="M33.8849 16.2712C33.8849 21.8876 29.3318 26.4407 23.7154 26.4407C18.0987 26.4407 13.5459 21.8876 13.5459 16.2712C13.5459 10.6548 18.0987 6.1017 23.7154 6.1017C29.3318 6.1017 33.8849 10.6548 33.8849 16.2712Z" fill="#FDD020"/>
<path d="M23.7151 4.0678C23.3403 4.0678 23.0371 3.76423 23.0371 3.38983V0.677966C23.0371 0.303562 23.3403 0 23.7151 0C24.0895 0 24.393 0.303562 24.393 0.677966V3.38983C24.393 3.76423 24.0895 4.0678 23.7151 4.0678Z" fill="#FDD020"/>
<path d="M39.3078 16.9492H36.5959C36.2212 16.9492 35.918 16.6456 35.918 16.2712C35.918 15.8968 36.2212 15.5932 36.5959 15.5932H39.3078C39.6822 15.5932 39.9858 15.8968 39.9858 16.2712C39.9858 16.6456 39.6822 16.9492 39.3078 16.9492Z" fill="#FDD020"/>
<path d="M31.8506 25.0847C31.3547 25.0847 30.8598 25.1344 30.3739 25.2323C30.0074 23.4034 28.8226 21.8432 27.1591 20.9987C25.496 20.1542 23.5373 20.1188 21.8443 20.9024C20.3123 16.6823 15.6493 14.5034 11.4292 16.0354C7.20913 17.5678 5.03024 22.2308 6.56228 26.4509C2.86558 26.5677 -0.0545112 29.6272 0.000772158 33.3256C0.0563866 37.0236 3.06718 39.994 6.76587 40H31.8506C35.9691 40 39.3083 36.6611 39.3083 32.5423C39.3083 28.4236 35.9691 25.0847 31.8506 25.0847Z" fill="#EEEEEE"/>
<path d="M14.2236 6.77966L11.5117 4.06779L14.2236 6.77966Z" fill="#FDD020"/>
<path d="M14.2235 7.45766C14.0434 7.45766 13.8713 7.38615 13.7442 7.25903L11.0323 4.54717C10.8559 4.37701 10.7853 4.12476 10.8473 3.88774C10.9095 3.65071 11.0945 3.46566 11.3316 3.40376C11.5686 3.34152 11.8205 3.41237 11.991 3.58848L14.7029 6.30035C14.8965 6.49433 14.9544 6.78598 14.8495 7.03922C14.7446 7.29247 14.4976 7.45766 14.2235 7.45766Z" fill="#FDD020"/>
<path d="M33.207 6.77966L35.9189 4.06779L33.207 6.77966Z" fill="#FDD020"/>
<path d="M33.2063 7.45766C32.9319 7.45766 32.6849 7.29247 32.58 7.03922C32.475 6.78598 32.533 6.49433 32.7269 6.30035L35.4388 3.58848C35.609 3.41237 35.8609 3.34152 36.0979 3.40376C36.3349 3.46566 36.5203 3.65071 36.5822 3.88774C36.6441 4.12476 36.5736 4.37701 36.3975 4.54717L33.6856 7.25903C33.5585 7.38615 33.386 7.45766 33.2063 7.45766Z" fill="#FDD020"/>
</g>
<defs>
<clipPath id="clip0">
</clipPath>
</defs>
</svg>
