<svg width="65" height="65" viewBox="0 0 65 65" fill="none" xmlns="http://www.w3.org/2000/svg">
<path d="M50.9166 32.5C50.9166 42.671 42.671 50.9166 32.4999 50.9166C22.3289 50.9166 14.0833 42.671 14.0833 32.5C14.0833 22.3289 22.3289 14.0833 32.4999 14.0833C42.671 14.0833 50.9166 22.3289 50.9166 32.5Z" fill="#FDD020"/>
<path d="M32.5001 65C31.9018 65 31.4167 64.5149 31.4167 63.9167V55.25C31.4167 54.6517 31.9018 54.1667 32.5001 54.1667C33.0983 54.1667 33.5834 54.6517 33.5834 55.25V63.9167C33.5834 64.5149 33.0983 65 32.5001 65Z" fill="#FDD020"/>
<path d="M32.5001 10.8333C31.9018 10.8333 31.4167 10.3483 31.4167 9.75V1.08333C31.4167 0.485067 31.9018 0 32.5001 0C33.0983 0 33.5834 0.485067 33.5834 1.08333V9.75C33.5834 10.3483 33.0983 10.8333 32.5001 10.8333Z" fill="#FDD020"/>
<path d="M16.25 16.25L9.75 9.75L16.25 16.25Z" fill="#FDD020"/>
<path d="M16.25 17.3333C15.9627 17.3333 15.6871 17.219 15.484 17.0159L8.984 10.5159C8.57352 10.0906 8.57934 9.41511 8.99722 8.99722C9.41511 8.57934 10.0906 8.57352 10.5159 8.984L17.0159 15.484C17.3253 15.794 17.4184 16.26 17.2508 16.6647C17.0831 17.0693 16.6879 17.3333 16.25 17.3333Z" fill="#FDD020"/>
<path d="M55.25 55.25L48.75 48.75L55.25 55.25Z" fill="#FDD020"/>
<path d="M55.2499 56.3332C54.9627 56.3332 54.6871 56.219 54.484 56.0159L47.984 49.5159C47.5735 49.0906 47.5793 48.4151 47.9972 47.9972C48.4151 47.5793 49.0906 47.5735 49.5159 47.984L56.0159 54.484C56.3253 54.7939 56.4184 55.26 56.2507 55.6646C56.0831 56.0693 55.6879 56.3332 55.2499 56.3332Z" fill="#FDD020"/>
<path d="M48.75 16.25L55.25 9.75L48.75 16.25Z" fill="#FDD020"/>
<path d="M48.75 17.3333C48.312 17.3333 47.9168 17.0693 47.7492 16.6647C47.5815 16.26 47.6746 15.794 47.984 15.484L54.484 8.984C54.9093 8.57352 55.5848 8.57934 56.0027 8.99722C56.4206 9.41511 56.4264 10.0906 56.0159 10.5159L49.5159 17.0159C49.3128 17.219 49.0372 17.3333 48.75 17.3333Z" fill="#FDD020"/>
<path d="M63.9168 33.5833H55.2501C54.6518 33.5833 54.1667 33.0983 54.1667 32.5C54.1667 31.9017 54.6518 31.4167 55.2501 31.4167H63.9168C64.515 31.4167 65.0001 31.9017 65.0001 32.5C65.0001 33.0983 64.515 33.5833 63.9168 33.5833Z" fill="#FDD020"/>
<path d="M9.75 33.5833H1.08333C0.485067 33.5833 0 33.0983 0 32.5C0 31.9017 0.485067 31.4167 1.08333 31.4167H9.75C10.3483 31.4167 10.8333 31.9017 10.8333 32.5C10.8333 33.0983 10.3483 33.5833 9.75 33.5833Z" fill="#FDD020"/>
<path d="M9.75 55.25L16.25 48.75L9.75 55.25Z" fill="#FDD020"/>
<path d="M9.74997 56.3332C9.31198 56.3332 8.91684 56.0693 8.74915 55.6646C8.58147 55.26 8.67457 54.7939 8.98402 54.484L15.484 47.984C15.9093 47.5735 16.5848 47.5793 17.0027 47.9972C17.4206 48.4151 17.4264 49.0906 17.0159 49.5159L10.5159 56.0159C10.3128 56.219 10.0372 56.3332 9.74997 56.3332Z" fill="#FDD020"/>
</svg>
