<svg width="40" height="40" viewBox="0 0 40 40" fill="none" xmlns="http://www.w3.org/2000/svg">
<path d="M31.3334 20C31.3334 26.2591 26.2591 31.3333 20 31.3333C13.7409 31.3333 8.66669 26.2591 8.66669 20C8.66669 13.7409 13.7409 8.66666 20 8.66666C26.2591 8.66666 31.3334 13.7409 31.3334 20Z" fill="#FDD020"/>
<path d="M20 40C19.6318 40 19.3333 39.7015 19.3333 39.3333V34C19.3333 33.6318 19.6318 33.3333 20 33.3333C20.3682 33.3333 20.6667 33.6318 20.6667 34V39.3333C20.6667 39.7015 20.3682 40 20 40Z" fill="#FDD020"/>
<path d="M20 6.66667C19.6318 6.66667 19.3333 6.36816 19.3333 6V0.666667C19.3333 0.298503 19.6318 0 20 0C20.3682 0 20.6667 0.298503 20.6667 0.666667V6C20.6667 6.36816 20.3682 6.66667 20 6.66667Z" fill="#FDD020"/>
<path d="M10 10L6 6L10 10Z" fill="#FDD020"/>
<path d="M10 10.6666C9.82327 10.6666 9.65367 10.5963 9.52867 10.4713L5.52867 6.47132C5.27607 6.2096 5.27965 5.79391 5.53681 5.53675C5.79397 5.27959 6.20966 5.27601 6.47138 5.52861L10.4714 9.52861C10.6618 9.71936 10.7191 10.0061 10.6159 10.2552C10.5127 10.5042 10.2696 10.6666 10 10.6666Z" fill="#FDD020"/>
<path d="M34 34L30 30L34 34Z" fill="#FDD020"/>
<path d="M34 34.6666C33.8232 34.6666 33.6536 34.5963 33.5286 34.4713L29.5286 30.4713C29.276 30.2096 29.2796 29.7939 29.5368 29.5367C29.7939 29.2796 30.2096 29.276 30.4713 29.5286L34.4713 33.5286C34.6618 33.7194 34.7191 34.0061 34.6159 34.2552C34.5127 34.5042 34.2695 34.6666 34 34.6666Z" fill="#FDD020"/>
<path d="M30 10L34 6L30 10Z" fill="#FDD020"/>
<path d="M30 10.6666C29.7305 10.6666 29.4873 10.5042 29.3841 10.2552C29.2809 10.0061 29.3382 9.71936 29.5286 9.52861L33.5286 5.52861C33.7904 5.27601 34.2061 5.27959 34.4632 5.53675C34.7204 5.79391 34.724 6.2096 34.4713 6.47132L30.4714 10.4713C30.3464 10.5963 30.1768 10.6666 30 10.6666Z" fill="#FDD020"/>
<path d="M39.3333 20.6667H34C33.6318 20.6667 33.3333 20.3682 33.3333 20C33.3333 19.6318 33.6318 19.3333 34 19.3333H39.3333C39.7015 19.3333 40 19.6318 40 20C40 20.3682 39.7015 20.6667 39.3333 20.6667Z" fill="#FDD020"/>
<path d="M6 20.6667H0.666667C0.298503 20.6667 0 20.3682 0 20C0 19.6318 0.298503 19.3333 0.666667 19.3333H6C6.36816 19.3333 6.66667 19.6318 6.66667 20C6.66667 20.3682 6.36816 20.6667 6 20.6667Z" fill="#FDD020"/>
<path d="M6 34L10 30L6 34Z" fill="#FDD020"/>
<path d="M5.99999 34.6666C5.73046 34.6666 5.48729 34.5042 5.3841 34.2552C5.28091 34.0061 5.3382 33.7194 5.52863 33.5286L9.52863 29.5286C9.79035 29.276 10.206 29.2796 10.4632 29.5367C10.7204 29.7939 10.7239 30.2096 10.4713 30.4713L6.47134 34.4713C6.34634 34.5963 6.17674 34.6666 5.99999 34.6666Z" fill="#FDD020"/>
</svg>
